<svg xmlns="http://www.w3.org/2000/svg" width="146.602" height="159.947" viewBox="0 0 146.602 159.947">
  <g id="hot-air-balloon" transform="translate(-20.027 0)">
    <g id="Grupo_439" data-name="Grupo 439" transform="translate(49.339 0)">
      <g id="Grupo_438" data-name="Grupo 438" transform="translate(0 0)">
        <path id="Trazado_279" data-name="Trazado 279" d="M187.513,12.105a46.914,46.914,0,0,0-37-11.776c-.642.072-1.269.205-1.906.3a2.716,2.716,0,0,0-.424.067,48.679,48.679,0,0,0-39.9,43.322A49.543,49.543,0,0,0,122.952,84.7a37.317,37.317,0,0,1,11.712,26.833v.434a2.666,2.666,0,0,0,2.665,2.665H140v18.658a2.666,2.666,0,0,0-2.665,2.665v21.324A2.666,2.666,0,0,0,140,159.947h31.986a2.666,2.666,0,0,0,2.665-2.665V135.957a2.666,2.666,0,0,0-2.665-2.665V114.633h2.665a2.666,2.666,0,0,0,2.665-2.665v-.442a37.4,37.4,0,0,1,11.587-26.7,49.127,49.127,0,0,0,15.068-35.694A49.627,49.627,0,0,0,187.513,12.105ZM150.8,5.687a3.111,3.111,0,0,0,.309-.051,42.72,42.72,0,0,1,10.078.067L168.7,20.662A56.6,56.6,0,0,1,174.647,45.9c0,.341-.021.677-.027,1.018L172.536,49a23.43,23.43,0,0,1-33.095,0l-2.084-2.074c0-.341-.027-.677-.027-1.018a56.51,56.51,0,0,1,5.933-25.138Zm10.515,95.049V109.3H150.658v-8.567a61.129,61.129,0,0,0-5.518-25.474l-2.769-6.093a55.92,55.92,0,0,1-4.326-14.284,28.74,28.74,0,0,0,35.888,0,55.922,55.922,0,0,1-4.326,14.284l-2.769,6.093A61.13,61.13,0,0,0,161.319,100.735Zm5.331,13.9v18.658H145.327V114.633ZM113.567,44.547a43.562,43.562,0,0,1,30.583-37.5L138.495,18.38A61.869,61.869,0,0,0,132,45.9c0,.323.021.642.027.965l-1.911,1.911a12.389,12.389,0,0,1-16.761.648A46.115,46.115,0,0,1,113.567,44.547Zm26.37,64.755a42.8,42.8,0,0,0-13.269-28.427v.005A43.785,43.785,0,0,1,113.94,56.11a17.766,17.766,0,0,0,18.578-2.33,61.109,61.109,0,0,0,5,17.592l2.769,6.093a55.839,55.839,0,0,1,5.04,23.27V109.3Zm8.055,45.313h-5.331v-5.331h5.331Zm0-10.662h-5.331v-5.331h5.331Zm10.662,10.662h-5.331v-5.331h5.331Zm0-10.662h-5.331v-5.331h5.331Zm10.662,10.662h-5.331v-5.331h5.331Zm0-10.662h-5.331v-5.331h5.331ZM185.2,80.985A42.945,42.945,0,0,0,172.043,109.3H166.65v-8.567a55.837,55.837,0,0,1,5.04-23.267l2.769-6.093a61.073,61.073,0,0,0,5-17.592,17.768,17.768,0,0,0,18.594,2.324A43.59,43.59,0,0,1,185.2,80.985Zm-3.335-32.207-1.911-1.911c0-.344.027-.685.027-1.029a61.843,61.843,0,0,0-6.514-27.561l-5.619-11.2a42.015,42.015,0,0,1,16.132,9,44.279,44.279,0,0,1,14.66,33.047c0,.1-.013.2-.013.3A12.392,12.392,0,0,1,181.862,48.777Z" transform="translate(-108.001 0)" fill="#fff"/>
      </g>
    </g>
    <g id="Grupo_441" data-name="Grupo 441" transform="translate(129.312 122.63)">
      <g id="Grupo_440" data-name="Grupo 440" transform="translate(0)">
        <rect id="Rectángulo_20" data-name="Rectángulo 20" width="5.331" height="5.331" fill="#fff"/>
      </g>
    </g>
    <g id="Grupo_443" data-name="Grupo 443" transform="translate(134.643 117.299)">
      <g id="Grupo_442" data-name="Grupo 442" transform="translate(0)">
        <rect id="Rectángulo_21" data-name="Rectángulo 21" width="5.331" height="5.331" fill="#fff"/>
      </g>
    </g>
    <g id="Grupo_445" data-name="Grupo 445" transform="translate(139.974 122.63)">
      <g id="Grupo_444" data-name="Grupo 444">
        <rect id="Rectángulo_22" data-name="Rectángulo 22" width="5.331" height="5.331" fill="#fff"/>
      </g>
    </g>
    <g id="Grupo_447" data-name="Grupo 447" transform="translate(145.305 117.299)">
      <g id="Grupo_446" data-name="Grupo 446">
        <rect id="Rectángulo_23" data-name="Rectángulo 23" width="5.331" height="5.331" fill="#fff"/>
      </g>
    </g>
    <g id="Grupo_449" data-name="Grupo 449" transform="translate(150.636 111.968)">
      <g id="Grupo_448" data-name="Grupo 448">
        <rect id="Rectángulo_24" data-name="Rectángulo 24" width="5.331" height="5.331" fill="#fff"/>
      </g>
    </g>
    <g id="Grupo_451" data-name="Grupo 451" transform="translate(155.967 117.299)">
      <g id="Grupo_450" data-name="Grupo 450">
        <rect id="Rectángulo_25" data-name="Rectángulo 25" width="5.331" height="5.331" fill="#fff"/>
      </g>
    </g>
    <g id="Grupo_453" data-name="Grupo 453" transform="translate(20.027 90.644)">
      <g id="Grupo_452" data-name="Grupo 452">
        <rect id="Rectángulo_26" data-name="Rectángulo 26" width="5.331" height="5.331" fill="#fff"/>
      </g>
    </g>
    <g id="Grupo_455" data-name="Grupo 455" transform="translate(25.358 85.313)">
      <g id="Grupo_454" data-name="Grupo 454" transform="translate(0)">
        <rect id="Rectángulo_27" data-name="Rectángulo 27" width="5.331" height="5.331" fill="#fff"/>
      </g>
    </g>
    <g id="Grupo_457" data-name="Grupo 457" transform="translate(30.689 90.644)">
      <g id="Grupo_456" data-name="Grupo 456">
        <rect id="Rectángulo_28" data-name="Rectángulo 28" width="5.331" height="5.331" fill="#fff"/>
      </g>
    </g>
    <g id="Grupo_459" data-name="Grupo 459" transform="translate(36.02 95.975)">
      <g id="Grupo_458" data-name="Grupo 458" transform="translate(0)">
        <rect id="Rectángulo_29" data-name="Rectángulo 29" width="5.331" height="5.331" fill="#fff"/>
      </g>
    </g>
    <g id="Grupo_461" data-name="Grupo 461" transform="translate(145.305 21.342)">
      <g id="Grupo_460" data-name="Grupo 460">
        <rect id="Rectángulo_30" data-name="Rectángulo 30" width="5.331" height="5.331" fill="#fff"/>
      </g>
    </g>
    <g id="Grupo_463" data-name="Grupo 463" transform="translate(150.636 16.011)">
      <g id="Grupo_462" data-name="Grupo 462">
        <rect id="Rectángulo_31" data-name="Rectángulo 31" width="5.331" height="5.331" fill="#fff"/>
      </g>
    </g>
    <g id="Grupo_465" data-name="Grupo 465" transform="translate(155.967 21.342)">
      <g id="Grupo_464" data-name="Grupo 464">
        <rect id="Rectángulo_32" data-name="Rectángulo 32" width="5.331" height="5.331" fill="#fff"/>
      </g>
    </g>
    <g id="Grupo_467" data-name="Grupo 467" transform="translate(161.298 26.673)">
      <g id="Grupo_466" data-name="Grupo 466">
        <rect id="Rectángulo_33" data-name="Rectángulo 33" width="5.331" height="5.331" fill="#fff"/>
      </g>
    </g>
    <g id="Grupo_469" data-name="Grupo 469" transform="translate(38.685 141.288)">
      <g id="Grupo_468" data-name="Grupo 468" transform="translate(0)">
        <rect id="Rectángulo_34" data-name="Rectángulo 34" width="5.331" height="5.331" fill="#fff"/>
      </g>
    </g>
    <g id="Grupo_471" data-name="Grupo 471" transform="translate(44.016 135.957)">
      <g id="Grupo_470" data-name="Grupo 470">
        <rect id="Rectángulo_35" data-name="Rectángulo 35" width="5.331" height="5.331" fill="#fff"/>
      </g>
    </g>
    <g id="Grupo_473" data-name="Grupo 473" transform="translate(49.347 141.288)">
      <g id="Grupo_472" data-name="Grupo 472">
        <rect id="Rectángulo_36" data-name="Rectángulo 36" width="5.331" height="5.331" fill="#fff"/>
      </g>
    </g>
  </g>
</svg>
