<svg xmlns="http://www.w3.org/2000/svg" width="772.477" height="692.393" viewBox="0 0 772.477 692.393">
  <g id="project" transform="translate(0 -26.54)" opacity="0.143">
    <g id="Grupo_68" data-name="Grupo 68" transform="translate(0 26.54)">
      <g id="Grupo_67" data-name="Grupo 67">
        <path id="Trazado_52" data-name="Trazado 52" d="M733.268,186.708a12.514,12.514,0,0,0,0,25.027,14.2,14.2,0,0,1,14.182,14.182V679.726a14.2,14.2,0,0,1-14.182,14.182H92.6a67.572,67.572,0,0,1,0-135.144,12.514,12.514,0,0,0,12.514-12.514V211.734h67.571a12.514,12.514,0,0,0,0-25.027H105.11V39.054A12.514,12.514,0,0,0,92.6,26.54,92.7,92.7,0,0,0,0,119.138v507.2a92.7,92.7,0,0,0,92.6,92.6H733.268a39.253,39.253,0,0,0,39.208-39.208V225.916A39.252,39.252,0,0,0,733.268,186.708ZM25.026,119.138A67.688,67.688,0,0,1,80.083,52.729V534.582a92.48,92.48,0,0,0-55.057,28.5V119.138Z" transform="translate(0 -26.54)" fill="#f4f4f4"/>
      </g>
    </g>
    <g id="Grupo_70" data-name="Grupo 70" transform="translate(347.029 186.708)">
      <g id="Grupo_69" data-name="Grupo 69">
        <path id="Trazado_53" data-name="Trazado 53" d="M456.088,132.7H242.526a12.513,12.513,0,1,0,0,25.027H456.088a12.513,12.513,0,0,0,0-25.027Z" transform="translate(-230.012 -132.7)" fill="#f4f4f4"/>
      </g>
    </g>
    <g id="Grupo_72" data-name="Grupo 72" transform="translate(213.558 106.624)">
      <g id="Grupo_71" data-name="Grupo 71">
        <path id="Trazado_54" data-name="Trazado 54" d="M511.03,538.343,164,84.534a12.513,12.513,0,0,0-22.453,7.6V545.942a12.514,12.514,0,0,0,12.513,12.514h347.03a12.511,12.511,0,0,0,9.94-20.113Zm-344.458-4.914V129.095l309.2,404.334Z" transform="translate(-141.547 -79.62)" fill="#f4f4f4"/>
      </g>
    </g>
    <g id="Grupo_74" data-name="Grupo 74" transform="translate(280.294 303.757)">
      <g id="Grupo_73" data-name="Grupo 73">
        <path id="Trazado_55" data-name="Trazado 55" d="M353.478,405.131,208.232,215.194a12.512,12.512,0,0,0-22.452,7.6V412.732a12.514,12.514,0,0,0,12.513,12.513H343.54a12.511,12.511,0,0,0,9.938-20.115ZM210.806,400.22V259.757L318.217,400.22Z" transform="translate(-185.78 -210.281)" fill="#f4f4f4"/>
      </g>
    </g>
    <g id="Grupo_76" data-name="Grupo 76" transform="translate(613.977 53.234)">
      <g id="Grupo_75" data-name="Grupo 75">
        <path id="Trazado_56" data-name="Trazado 56" d="M484.465,118.834,457.771,52.1a12.512,12.512,0,0,0-23.235,0l-26.694,66.736a12.5,12.5,0,0,0-.9,4.648v480.5a25.888,25.888,0,0,0,25.86,25.86H459.5a25.888,25.888,0,0,0,25.86-25.86v-480.5A12.462,12.462,0,0,0,484.465,118.834Zm-38.312-28.4,13.552,33.879H432.6Zm14.182,513.549a.835.835,0,0,1-.834.834H432.807a.835.835,0,0,1-.834-.834V576.458h28.363Zm0-52.556H431.973V149.344h28.363Z" transform="translate(-406.946 -44.233)" fill="#f4f4f4"/>
      </g>
    </g>
  </g>
</svg>
