<svg id="loading_1_" data-name="loading (1)" xmlns="http://www.w3.org/2000/svg" width="25.79" height="25.79" viewBox="0 0 25.79 25.79">
  <g id="SVGCleanerId_0" transform="translate(12.173 21.072)">
    <g id="Grupo_237" data-name="Grupo 237">
      <path id="Trazado_221" data-name="Trazado 221" d="M242.38,418.34a.723.723,0,0,0-.722.722v3.273a.722.722,0,0,0,1.445,0v-3.273A.723.723,0,0,0,242.38,418.34Z" transform="translate(-241.658 -418.34)" fill="#fbb03b"/>
    </g>
  </g>
  <g id="SVGCleanerId_1" transform="translate(12.173 0)">
    <g id="Grupo_238" data-name="Grupo 238">
      <path id="Trazado_222" data-name="Trazado 222" d="M242.38,0a.723.723,0,0,0-.722.722V4A.722.722,0,0,0,243.1,4V.722A.723.723,0,0,0,242.38,0Z" transform="translate(-241.658 0)" fill="#fbb03b"/>
    </g>
  </g>
  <g id="Grupo_240" data-name="Grupo 240" transform="translate(6.086 19.88)">
    <g id="Grupo_239" data-name="Grupo 239">
      <path id="Trazado_223" data-name="Trazado 223" d="M123.547,394.765a.722.722,0,0,0-.987.264l-1.636,2.834a.722.722,0,1,0,1.251.723l1.636-2.834A.722.722,0,0,0,123.547,394.765Z" transform="translate(-120.827 -394.668)" fill="#fbb03b"/>
    </g>
  </g>
  <g id="Grupo_242" data-name="Grupo 242" transform="translate(16.622 1.631)">
    <g id="Grupo_241" data-name="Grupo 241">
      <path id="Trazado_224" data-name="Trazado 224" d="M332.717,32.473a.722.722,0,0,0-.987.264l-1.637,2.834a.722.722,0,1,0,1.251.722l1.636-2.834A.722.722,0,0,0,332.717,32.473Z" transform="translate(-329.997 -32.376)" fill="#fbb03b"/>
    </g>
  </g>
  <g id="Grupo_244" data-name="Grupo 244" transform="translate(1.631 16.622)">
    <g id="Grupo_243" data-name="Grupo 243">
      <path id="Trazado_225" data-name="Trazado 225" d="M36.555,330.358a.722.722,0,0,0-.987-.264l-2.834,1.636a.722.722,0,1,0,.722,1.251l2.834-1.636A.722.722,0,0,0,36.555,330.358Z" transform="translate(-32.373 -329.997)" fill="#fbb03b"/>
    </g>
  </g>
  <g id="Grupo_246" data-name="Grupo 246" transform="translate(19.88 6.086)">
    <g id="Grupo_245" data-name="Grupo 245">
      <path id="Trazado_226" data-name="Trazado 226" d="M398.849,121.189a.723.723,0,0,0-.987-.264l-2.834,1.636a.722.722,0,1,0,.722,1.251l2.834-1.636A.722.722,0,0,0,398.849,121.189Z" transform="translate(-394.667 -120.828)" fill="#fbb03b"/>
    </g>
  </g>
  <g id="Grupo_248" data-name="Grupo 248" transform="translate(0 12.173)">
    <g id="Grupo_247" data-name="Grupo 247">
      <path id="Trazado_227" data-name="Trazado 227" d="M4,241.658H.722a.722.722,0,0,0,0,1.445H4a.722.722,0,0,0,0-1.445Z" transform="translate(0 -241.658)" fill="#fbb03b"/>
    </g>
  </g>
  <g id="Grupo_250" data-name="Grupo 250" transform="translate(21.072 12.173)">
    <g id="Grupo_249" data-name="Grupo 249">
      <path id="Trazado_228" data-name="Trazado 228" d="M422.334,241.658h-3.273a.722.722,0,0,0,0,1.445h3.273a.722.722,0,1,0,0-1.445Z" transform="translate(-418.339 -241.658)" fill="#fbb03b"/>
    </g>
  </g>
  <g id="Grupo_252" data-name="Grupo 252" transform="translate(1.631 6.086)">
    <g id="Grupo_251" data-name="Grupo 251">
      <path id="Trazado_229" data-name="Trazado 229" d="M36.291,122.56l-2.834-1.636a.722.722,0,1,0-.722,1.251l2.835,1.636a.722.722,0,0,0,.722-1.251Z" transform="translate(-32.373 -120.827)" fill="#fbb03b"/>
    </g>
  </g>
  <g id="Grupo_254" data-name="Grupo 254" transform="translate(19.88 16.622)">
    <g id="Grupo_253" data-name="Grupo 253">
      <path id="Trazado_230" data-name="Trazado 230" d="M398.586,331.73l-2.834-1.636a.722.722,0,0,0-.722,1.251l2.834,1.636a.722.722,0,0,0,.722-1.251Z" transform="translate(-394.668 -329.997)" fill="#fbb03b"/>
    </g>
  </g>
  <g id="Grupo_256" data-name="Grupo 256" transform="translate(6.086 1.631)">
    <g id="Grupo_255" data-name="Grupo 255">
      <path id="Trazado_231" data-name="Trazado 231" d="M123.811,35.57l-1.636-2.834a.722.722,0,1,0-1.251.722l1.636,2.835a.722.722,0,0,0,1.251-.723Z" transform="translate(-120.827 -32.375)" fill="#fbb03b"/>
    </g>
  </g>
  <g id="Grupo_258" data-name="Grupo 258" transform="translate(16.622 19.88)">
    <g id="Grupo_257" data-name="Grupo 257">
      <path id="Trazado_232" data-name="Trazado 232" d="M332.981,397.864l-1.636-2.834a.722.722,0,0,0-1.251.722l1.637,2.834a.722.722,0,1,0,1.251-.722Z" transform="translate(-329.997 -394.668)" fill="#fbb03b"/>
    </g>
  </g>
  <g id="Grupo_260" data-name="Grupo 260" transform="translate(12.173 0)">
    <g id="Grupo_259" data-name="Grupo 259">
      <path id="Trazado_233" data-name="Trazado 233" d="M242.38,0a.723.723,0,0,0-.722.722V4A.722.722,0,0,0,243.1,4V.722A.723.723,0,0,0,242.38,0Z" transform="translate(-241.658 0)" fill="#fbb03b"/>
    </g>
  </g>
  <g id="Grupo_262" data-name="Grupo 262" transform="translate(12.173 21.072)">
    <g id="Grupo_261" data-name="Grupo 261">
      <path id="Trazado_234" data-name="Trazado 234" d="M242.38,418.34a.723.723,0,0,0-.722.722v3.273a.722.722,0,0,0,1.445,0v-3.273A.723.723,0,0,0,242.38,418.34Z" transform="translate(-241.658 -418.34)" fill="#fbb03b"/>
    </g>
  </g>
</svg>
